<?xml version="1.0" standalone="no"?>
<!DOCTYPE svg PUBLIC "-//W3C//DTD SVG 20010904//EN"
 "http://www.w3.org/TR/2001/REC-SVG-20010904/DTD/svg10.dtd">
<svg version="1.0" xmlns="http://www.w3.org/2000/svg"
 width="32pt" height="32pt" viewBox="0 0 146.000000 96.000000"
 preserveAspectRatio="xMidYMid meet">

<g transform="translate(0.000000,96.000000) scale(0.100000,-0.100000)"
fill="#F08000" stroke="none">
<path d="M130 794 c-68 -93 -124 -176 -124 -184 -1 -8 45 -57 100 -108 l102
-92 75 0 75 0 73 -133 c68 -121 74 -138 79 -202 4 -53 9 -70 20 -70 12 0 16
16 18 68 3 67 2 70 -59 180 -34 62 -69 124 -77 139 -15 27 -15 29 13 58 l28
30 39 -65 39 -65 90 0 c82 0 91 2 96 20 7 26 19 26 26 0 5 -18 14 -20 96 -20
l90 0 39 65 39 65 28 -30 c28 -29 28 -31 13 -58 -8 -15 -43 -77 -77 -139 -61
-110 -62 -113 -59 -180 2 -52 6 -68 18 -68 11 0 16 17 20 70 5 64 11 81 79
203 l73 132 75 0 75 0 102 92 c55 51 101 100 100 108 0 8 -56 91 -124 184
l-123 169 -68 -7 c-109 -10 -115 -14 -123 -87 -3 -35 -3 -66 1 -70 5 -4 31
-12 58 -17 40 -9 54 -8 71 3 21 13 23 11 43 -37 11 -28 21 -54 21 -57 0 -4
-18 -5 -40 -3 -26 3 -49 -2 -66 -13 -21 -14 -31 -14 -61 -4 -45 14 -105 7
-139 -18 -27 -20 -27 -20 -70 4 l-44 25 -30 -22 -30 -21 -30 21 -30 22 -44
-25 c-43 -24 -43 -24 -70 -4 -34 25 -94 32 -139 18 -30 -10 -40 -10 -61 4 -17
11 -40 16 -66 13 -22 -2 -40 -1 -40 3 0 3 10 29 21 57 20 48 22 50 43 37 17
-11 31 -12 71 -3 28 5 53 13 58 17 4 4 4 35 1 70 -8 73 -14 77 -123 87 l-68 7
-123 -169z m266 113 c1 -1 4 -20 6 -42 3 -37 1 -40 -27 -45 -22 -4 -38 0 -61
17 -25 18 -33 21 -41 11 -21 -26 -85 -209 -79 -224 5 -14 10 -13 40 5 43 27
84 27 113 -1 22 -21 24 -21 58 -5 52 25 98 22 135 -9 l31 -27 49 23 c47 22 48
22 79 4 30 -18 32 -18 62 0 31 18 32 18 79 -4 l49 -23 31 27 c37 31 83 34 135
9 34 -16 36 -16 55 5 26 28 72 28 116 1 30 -18 35 -19 40 -5 6 15 -58 198 -79
224 -8 10 -16 7 -41 -11 -23 -17 -39 -21 -61 -17 -28 5 -30 8 -27 45 2 22 5
41 6 42 2 2 31 4 66 5 l63 3 108 -149 c60 -82 109 -152 109 -155 0 -4 -39 -42
-86 -84 l-87 -77 -71 0 c-65 0 -72 2 -103 31 -31 31 -32 33 -17 62 11 19 12
33 6 39 -16 16 -25 5 -86 -97 l-57 -95 -68 0 -68 0 -13 70 c-10 54 -17 70 -30
70 -13 0 -20 -16 -30 -70 l-13 -70 -68 0 -68 0 -57 95 c-61 102 -70 113 -86
97 -6 -6 -5 -20 6 -39 15 -29 14 -31 -17 -62 -31 -29 -38 -31 -104 -31 l-71 0
-83 76 c-46 41 -85 79 -87 83 -2 7 93 143 196 280 25 33 25 33 86 26 33 -3 62
-7 62 -8z"/>
<path d="M680 300 c-9 -17 -21 -20 -71 -20 -52 0 -60 -2 -57 -17 3 -15 16 -19
76 -21 70 -3 72 -2 82 23 6 15 10 33 10 41 0 21 -28 17 -40 -6z"/>
<path d="M740 306 c0 -8 4 -26 10 -41 10 -25 12 -26 82 -23 60 2 73 6 76 21 3
15 -5 17 -57 17 -50 0 -62 3 -71 20 -12 23 -40 27 -40 6z"/>
<path d="M683 190 c-4 -16 -14 -20 -52 -20 -52 0 -62 -5 -54 -26 4 -10 23 -14
64 -14 55 0 60 2 70 27 5 14 8 32 5 40 -8 20 -27 16 -33 -7z"/>
<path d="M744 197 c-3 -8 0 -26 5 -40 10 -25 15 -27 70 -27 41 0 60 4 64 14 8
21 -2 26 -54 26 -38 0 -48 4 -52 20 -6 23 -25 27 -33 7z"/>
<path d="M670 80 c-6 -11 -23 -20 -43 -22 -51 -5 -42 -32 12 -36 48 -4 56 1
65 39 7 33 -19 48 -34 19z"/>
<path d="M762 92 c-9 -7 -10 -16 -1 -41 11 -31 13 -32 58 -29 54 4 66 31 16
36 -16 2 -37 12 -45 22 -9 12 -20 16 -28 12z"/>
</g>
</svg>
