<?xml version="1.0" standalone="no"?>
<!DOCTYPE svg PUBLIC "-//W3C//DTD SVG 20010904//EN"
 "http://www.w3.org/TR/2001/REC-SVG-20010904/DTD/svg10.dtd">
<svg version="1.0" xmlns="http://www.w3.org/2000/svg"
 width="64pt" height="64pt" viewBox="0 0 75.000000 96.000000"
 preserveAspectRatio="xMidYMid meet">

<g transform="translate(0.000000,96.000000) scale(0.100000,-0.100000)"
fill="#F08000" stroke="none">
<path d="M197 888 c-145 -197 -197 -272 -197 -283 0 -7 48 -56 107 -109 l107
-96 72 0 72 0 76 -136 c73 -131 76 -140 76 -201 0 -56 2 -64 18 -61 14 3 18
16 20 68 2 64 2 66 -77 207 l-79 142 29 27 c16 15 30 26 32 23 2 -2 19 -30 38
-62 l34 -58 95 3 95 3 17 80 c10 50 13 84 7 90 -15 15 -31 -10 -43 -72 l-12
-58 -69 -3 -70 -2 -59 100 c-32 55 -62 100 -66 100 -18 0 -22 -22 -10 -51 12
-28 11 -32 -21 -65 -31 -32 -37 -34 -98 -34 l-66 0 -92 84 -92 84 111 154 c62
84 113 155 114 156 1 2 31 0 66 -5 l63 -8 3 -41 c3 -39 1 -42 -29 -48 -25 -5
-38 -1 -54 14 -23 21 -40 25 -49 11 -21 -33 -82 -211 -76 -221 5 -8 17 -6 46
9 49 26 74 26 108 0 25 -20 28 -20 67 -5 55 22 80 20 124 -10 l39 -26 47 22
47 23 30 -22 c25 -18 31 -19 42 -6 9 11 4 20 -31 44 l-42 31 -45 -25 c-44 -25
-44 -25 -69 -6 -35 28 -77 34 -133 21 -42 -10 -52 -9 -74 5 -18 12 -38 16 -65
12 l-39 -5 15 37 c9 20 19 47 24 60 9 23 10 23 29 6 16 -15 25 -15 74 -4 l56
12 0 51 c0 88 -3 92 -80 105 -107 17 -104 18 -163 -61z"/>
<path d="M677 301 c-4 -17 -15 -20 -68 -23 -49 -2 -64 -7 -64 -18 0 -12 17
-16 78 -18 82 -3 84 -2 89 48 4 30 -27 40 -35 11z"/>
<path d="M681 191 c-8 -15 -23 -21 -59 -23 -34 -2 -47 -7 -47 -18 0 -12 14
-15 64 -15 62 0 65 1 72 27 9 36 -14 59 -30 29z"/>
<path d="M663 76 c-4 -8 -21 -16 -38 -18 -49 -5 -38 -32 14 -36 47 -4 61 6 61
46 0 25 -24 30 -37 8z"/>
</g>
</svg>
