<?xml version="1.0" standalone="no"?>
<!DOCTYPE svg PUBLIC "-//W3C//DTD SVG 20010904//EN"
 "http://www.w3.org/TR/2001/REC-SVG-20010904/DTD/svg10.dtd">
<svg version="1.0" xmlns="http://www.w3.org/2000/svg"
 width="64pt" height="64pt" viewBox="0 0 479.000000 479.000000"
 preserveAspectRatio="xMidYMid meet">

<g transform="translate(0.000000,479.000000) scale(0.100000,-0.100000)"
fill="#F08000" stroke="none">
<path d="M1135 4765 c-24 -23 -25 -31 -25 -133 0 -90 3 -113 18 -130 9 -11
101 -70 205 -131 103 -62 187 -117 187 -122 0 -6 69 -443 154 -972 l155 -963
-75 -259 -74 -259 -179 -181 c-258 -259 -306 -346 -306 -550 0 -114 14 -172
61 -265 42 -81 55 -97 404 -484 l285 -316 43 0 c37 0 60 11 176 89 73 49 136
97 140 106 12 31 6 56 -29 125 l-35 70 35 70 c49 98 47 111 -28 187 l-64 63
-74 0 -74 0 -92 153 -92 152 107 108 107 107 5 -122 c4 -101 10 -131 29 -170
55 -113 183 -170 306 -137 60 16 293 173 300 201 3 13 6 69 8 126 l2 102 107
-107 107 -108 -92 -152 -92 -153 -74 0 -74 0 -64 -63 c-75 -76 -77 -89 -28
-187 l35 -70 -35 -70 c-35 -69 -41 -94 -29 -125 4 -9 67 -57 140 -106 116 -78
139 -89 176 -89 l43 0 285 316 c157 174 304 340 328 368 123 145 169 337 123
515 -35 140 -72 193 -283 407 l-188 191 -74 258 -74 258 154 964 c85 529 154
967 154 972 0 6 84 60 188 122 103 61 195 120 205 131 14 17 17 40 17 130 0
102 -1 110 -25 133 l-24 25 -391 0 -391 0 -24 -25 c-23 -22 -25 -32 -25 -112
1 -85 -7 -114 -197 -780 -108 -381 -200 -693 -203 -693 -3 0 -95 312 -203 693
-190 666 -198 695 -197 780 0 80 -2 90 -25 112 l-24 25 -391 0 -391 0 -24 -25z
m695 -155 c0 -13 -38 -48 -120 -110 -65 -49 -122 -90 -125 -90 -4 0 -76 42
-161 92 -105 64 -154 98 -154 110 0 17 20 18 280 18 272 0 280 -1 280 -20z
m1680 2 c0 -12 -49 -46 -154 -110 -85 -50 -157 -92 -161 -92 -3 0 -60 41 -125
90 -178 134 -183 130 160 130 260 0 280 -1 280 -18z m-1497 -714 c81 -281 146
-512 144 -513 -15 -12 -313 -103 -318 -97 -12 14 -162 983 -153 992 17 17 169
129 175 130 3 0 72 -230 152 -512z m998 446 c49 -36 89 -69 89 -73 1 -9 -153
-986 -156 -989 -1 -2 -75 20 -163 49 -125 42 -160 57 -156 69 2 8 68 239 146
513 78 273 144 497 147 497 2 0 45 -30 93 -66z m-751 -1312 c59 -212 75 -242
128 -242 57 0 68 21 129 235 31 110 57 201 58 202 1 2 336 -107 342 -111 2 -1
-105 -673 -112 -703 l-5 -23 -410 0 -410 0 -5 23 c-3 12 -27 166 -55 342 -28
176 -52 329 -55 340 -4 19 13 26 163 77 92 31 169 57 172 57 3 1 30 -88 60
-197z m569 -869 c11 -38 45 -156 75 -263 l56 -195 97 -97 98 -98 -123 -123
-122 -122 -105 106 c-69 69 -105 113 -105 128 0 36 -42 114 -85 156 -65 66
-125 90 -225 90 -100 0 -160 -24 -225 -90 -43 -42 -85 -120 -85 -156 0 -15
-36 -59 -105 -128 l-105 -106 -122 122 -123 123 98 98 97 97 56 195 c30 107
64 225 75 263 l20 67 419 0 419 0 20 -67z m-351 -600 c58 -43 67 -66 70 -184
l4 -109 -161 0 -161 0 0 94 c0 129 22 179 95 212 40 19 119 12 153 -13z m-844
-292 l120 -120 -42 -45 c-27 -29 -42 -55 -42 -72 0 -28 238 -437 272 -467 16
-13 38 -17 99 -17 43 0 80 -4 84 -10 3 -5 -8 -36 -25 -69 -36 -73 -37 -88 -5
-151 14 -27 25 -53 25 -58 0 -10 -105 -82 -117 -81 -5 0 -136 143 -293 318
-305 340 -333 380 -353 497 -21 120 21 258 103 348 24 25 45 46 49 46 3 0 60
-54 125 -119z m1686 73 c114 -124 141 -322 63 -472 -18 -35 -132 -170 -313
-373 -157 -175 -288 -318 -293 -318 -12 -1 -117 71 -117 81 0 5 11 31 25 58
32 63 31 78 -5 151 -17 33 -28 64 -25 69 4 6 41 10 84 10 61 0 83 4 99 18 34
29 272 438 272 466 0 17 -15 43 -42 72 l-42 45 120 120 c65 65 122 119 125
119 4 0 25 -21 49 -46z m-770 -253 c0 -12 -31 -39 -93 -80 -112 -74 -142 -78
-193 -27 -29 29 -34 41 -34 80 l0 46 160 0 c150 0 160 -1 160 -19z"/>
</g>
</svg>
