<?xml version="1.0" standalone="no"?>
<!DOCTYPE svg PUBLIC "-//W3C//DTD SVG 20010904//EN"
 "http://www.w3.org/TR/2001/REC-SVG-20010904/DTD/svg10.dtd">
<svg version="1.0" xmlns="http://www.w3.org/2000/svg"
 width="64pt" height="64pt" viewBox="0 0 480.000000 480.000000"
 preserveAspectRatio="xMidYMid meet">

<g transform="translate(0.000000,480.000000) scale(0.100000,-0.100000)"
fill="#FFA500" stroke="none">
<path d="M1542 4785 c-23 -7 -58 -25 -77 -39 l-34 -26 -715 0 -716 0 0 -80 0
-80 675 0 675 0 0 -80 0 -80 -675 0 -675 0 0 -80 0 -80 675 0 674 0 3 -437 3
-438 32 -67 c43 -91 104 -149 249 -235 l120 -72 36 -251 36 -251 -145 -397
c-152 -417 -173 -487 -173 -589 l0 -63 -95 0 c-88 0 -98 -2 -120 -25 l-25 -24
0 -391 0 -391 25 -24 c23 -23 31 -25 130 -25 59 0 114 4 124 9 10 6 69 96 132
200 74 125 119 191 130 191 9 0 180 -101 380 -224 l364 -224 41 -237 c49 -290
38 -275 194 -275 88 0 112 3 128 18 20 16 272 669 272 704 0 36 -18 53 -144
138 -144 98 -172 118 -165 122 2 2 40 21 84 42 222 110 347 372 290 611 -7 33
-79 239 -158 457 l-145 397 36 251 36 251 120 72 c145 86 206 144 249 235 l32
67 3 438 3 437 679 0 680 0 0 80 0 80 -680 0 -680 0 0 80 0 80 680 0 680 0 0
80 0 80 -720 0 -719 0 -43 30 c-60 42 -141 58 -215 42 -32 -6 -77 -25 -101
-42 l-43 -30 -560 0 -560 0 -34 26 c-66 50 -167 66 -253 39z m172 -184 l31
-31 5 -506 5 -506 29 -23 29 -23 -83 -136 c-72 -121 -84 -135 -98 -124 -45 33
-76 67 -95 103 -22 40 -22 45 -22 627 l0 586 25 27 c33 36 57 46 104 41 27 -3
49 -14 70 -35z m1520 0 l31 -31 0 -588 c0 -582 0 -587 -22 -627 -19 -36 -50
-70 -95 -103 -14 -11 -26 3 -98 124 l-83 136 29 23 29 23 5 505 5 505 25 27
c33 36 57 46 104 41 27 -3 49 -14 70 -35z m-364 -121 l0 -80 -480 0 -480 0 0
80 0 80 480 0 480 0 0 -80z m0 -535 l0 -295 -80 -40 -80 -40 0 183 c0 219 -9
257 -80 327 -70 71 -160 95 -255 69 -47 -13 -281 -164 -295 -190 -6 -10 -10
-101 -10 -203 l0 -186 -80 40 -80 40 0 295 0 295 480 0 480 0 0 -295z m-354
21 c29 -29 34 -41 34 -80 l0 -46 -160 0 c-149 0 -160 1 -160 19 0 12 31 39 93
80 112 74 142 78 193 27z m32 -395 c-3 -118 -12 -141 -72 -185 -39 -29 -133
-29 -172 0 -60 44 -69 67 -72 185 l-4 109 162 0 162 0 -4 -109z m-510 -165
c49 -25 77 -47 103 -83 25 -33 57 -60 100 -83 59 -32 71 -35 149 -35 78 0 90
3 149 35 43 23 75 50 100 83 26 36 54 58 103 83 37 19 71 34 75 34 9 0 178
-279 172 -284 -2 -2 -26 -16 -52 -31 -27 -15 -53 -37 -58 -49 -5 -12 -22 -120
-39 -241 -17 -121 -33 -232 -36 -247 l-6 -28 -408 0 -408 0 -6 28 c-3 15 -19
126 -36 247 -17 121 -34 229 -39 241 -5 12 -31 34 -58 49 -26 15 -50 29 -52
31 -6 5 163 284 172 284 4 0 38 -15 75 -34z m856 -1226 c43 -120 78 -222 78
-226 -1 -8 -360 -164 -377 -164 -5 0 -41 62 -80 138 -76 148 -94 166 -152 146
-23 -7 -41 -35 -98 -146 -38 -76 -74 -138 -80 -138 -5 0 -94 36 -196 81 l-186
80 81 225 81 224 425 0 425 0 79 -220z m-442 -484 l57 -114 -122 -19 c-67 -11
-124 -18 -127 -16 -5 5 122 263 130 263 3 0 31 -51 62 -114z m-517 24 c94 -40
173 -74 177 -77 4 -2 -3 -26 -17 -53 -32 -64 -32 -95 3 -128 15 -15 183 -166
375 -336 191 -169 347 -312 347 -316 0 -7 -185 -150 -194 -150 -3 0 -177 106
-388 236 -234 144 -401 253 -430 282 -93 90 -147 238 -135 365 8 78 69 263 84
254 5 -3 85 -37 178 -77z m1134 -24 c38 -107 47 -184 32 -254 -35 -163 -158
-284 -321 -314 l-57 -11 -154 138 c-85 76 -155 141 -157 145 -1 3 55 15 125
25 104 15 132 23 150 41 30 30 29 63 -2 124 l-25 50 22 10 c234 102 344 146
350 141 3 -3 20 -46 37 -95z m-1489 -473 c16 -32 45 -78 64 -103 l34 -45 -106
-177 c-74 -122 -112 -178 -124 -178 -17 0 -18 20 -18 280 l0 280 60 0 60 0 30
-57z m1419 -527 c17 -21 -176 -536 -201 -536 -10 0 -20 10 -23 22 -7 33 -55
324 -55 336 0 12 239 192 256 192 6 0 17 -6 23 -14z"/>
</g>
</svg>
