<?xml version="1.0" standalone="no"?>
<!DOCTYPE svg PUBLIC "-//W3C//DTD SVG 20010904//EN"
 "http://www.w3.org/TR/2001/REC-SVG-20010904/DTD/svg10.dtd">
<svg version="1.0" xmlns="http://www.w3.org/2000/svg"
 width="64pt" height="64pt" viewBox="0 0 480.000000 480.000000"
 preserveAspectRatio="xMidYMid meet">

<g transform="translate(0.000000,480.000000) scale(0.100000,-0.100000)"
fill="#FFA500" stroke="none">
<path d="M1750 3949 c-73 -11 -117 -24 -504 -140 -181 -54 -333 -102 -338
-107 -5 -5 -43 -59 -86 -122 l-77 -114 -118 -40 -119 -41 -204 -239 c-220
-259 -262 -325 -289 -452 -52 -246 52 -501 261 -639 35 -23 195 -91 427 -180
l372 -143 413 -379 c228 -208 440 -395 472 -415 33 -21 94 -50 137 -65 78 -28
79 -28 398 -31 363 -4 414 2 540 63 119 57 181 117 334 321 112 149 141 181
150 170 7 -8 63 -88 126 -178 l115 -163 0 -83 c0 -75 2 -85 25 -107 l24 -25
471 0 471 0 24 25 c24 23 25 31 25 133 0 74 -4 114 -13 126 -8 10 -99 67 -203
126 l-189 108 -98 483 c-73 365 -104 498 -124 539 -37 75 -109 144 -191 183
l-67 32 -345 3 c-390 4 -440 -2 -568 -63 -96 -45 -132 -74 -277 -217 l-120
-118 -103 171 -102 170 0 484 c0 315 -4 503 -11 537 -37 178 -185 334 -358
380 -71 18 -191 21 -281 7z m291 -181 c72 -33 134 -94 168 -167 25 -55 26 -61
29 -288 l3 -233 -178 0 -179 0 19 166 c21 180 18 205 -27 225 -18 9 -108 2
-392 -30 -203 -23 -375 -41 -382 -41 -8 0 -40 -25 -72 -56 l-59 -56 -37 56
-37 57 59 86 59 86 330 99 c182 55 362 106 400 113 107 22 228 15 296 -17z
m-294 -485 c-3 -16 -11 -82 -18 -148 -6 -66 -14 -122 -16 -125 -2 -2 -64 57
-139 130 l-134 135 137 16 c192 23 176 24 170 -8z m-937 -42 c22 -33 40 -63
40 -68 0 -4 -26 -35 -59 -68 -68 -70 -311 -467 -311 -508 0 -49 27 -66 165
-101 92 -23 130 -37 129 -47 -1 -13 -104 -381 -108 -386 -7 -8 -268 104 -313
134 -139 92 -218 288 -184 455 21 99 64 164 251 383 l180 210 73 27 c39 15 77
27 84 27 7 1 30 -26 53 -58z m466 -47 c19 -9 37 -21 40 -26 4 -5 -39 -56 -95
-112 l-101 -103 0 -80 0 -79 -40 -39 -40 -39 -37 36 -36 36 27 139 c29 145 51
207 82 235 56 49 137 62 200 32z m266 -251 c120 -122 133 -145 133 -243 0 -83
-15 -121 -69 -178 -53 -57 -101 -77 -186 -77 -92 0 -131 19 -209 99 l-55 55
62 65 62 64 0 78 0 79 77 77 c43 43 80 78 83 78 3 0 49 -44 102 -97z m698
-234 l0 -211 112 -186 c61 -103 117 -196 124 -207 13 -19 -13 -47 -360 -394
l-373 -373 -287 263 -287 264 -170 67 c-94 36 -173 69 -176 72 -5 5 104 405
113 415 9 10 233 -56 273 -80 173 -107 424 -57 546 109 54 73 74 138 91 300 8
81 17 153 19 160 3 9 50 12 190 12 l185 0 0 -211z m-1429 110 c-18 -78 -15
-87 56 -160 36 -38 64 -69 62 -69 -14 1 -232 59 -236 63 -3 3 23 53 58 111 35
58 65 104 66 102 2 -2 -1 -23 -6 -47z m2644 -408 c117 -41 229 -136 284 -240
32 -61 321 -734 321 -748 0 -11 -208 -218 -213 -212 -2 2 -120 169 -261 371
-191 274 -263 369 -282 374 -40 10 -71 -4 -101 -46 -15 -22 -30 -40 -33 -40
-3 0 -79 74 -170 166 l-165 165 78 75 c82 80 179 135 268 154 70 14 206 5 274
-19z m460 5 c54 -25 103 -74 123 -122 15 -36 162 -769 152 -757 -4 4 -71 159
-150 343 -162 381 -181 418 -257 501 l-55 59 68 0 c51 0 82 -6 119 -24z
m-1017 -509 l174 -174 -197 -264 c-251 -336 -257 -344 -320 -385 -146 -98
-315 -109 -472 -32 -37 18 -94 61 -140 104 l-78 73 425 425 c234 234 427 426
430 426 3 0 83 -78 178 -173z m468 -290 l46 -67 -141 -189 c-78 -104 -163
-209 -190 -234 -83 -78 -207 -127 -320 -127 l-54 0 49 53 c27 29 155 195 284
370 l235 318 22 -28 c13 -15 44 -58 69 -96z m1107 -487 c115 -65 167 -100 167
-112 0 -17 -24 -18 -360 -18 l-360 0 0 22 c0 16 40 63 127 150 l127 127 66
-37 c36 -20 141 -80 233 -132z"/>
</g>
</svg>
