<?xml version="1.0" standalone="no"?>
<!DOCTYPE svg PUBLIC "-//W3C//DTD SVG 20010904//EN"
 "http://www.w3.org/TR/2001/REC-SVG-20010904/DTD/svg10.dtd">
<svg version="1.0" xmlns="http://www.w3.org/2000/svg"
 width="64pt" height="64pt" viewBox="0 0 481.000000 481.000000"
 preserveAspectRatio="xMidYMid meet">

<g transform="translate(0.000000,481.000000) scale(0.100000,-0.100000)"
fill="#FFA500" stroke="none">
<path d="M4135 3539 l-154 -152 -58 30 c-308 163 -740 145 -1148 -47 -55 -26
-634 -306 -1287 -623 l-1186 -577 -127 0 c-120 0 -127 -1 -150 -25 l-25 -24 0
-471 0 -471 25 -24 c23 -24 31 -25 133 -25 71 0 114 4 125 13 9 6 70 99 134
206 l118 194 1509 464 c830 255 1510 462 1512 460 4 -3 124 -1242 124 -1274 0
-7 11 -25 25 -38 l24 -25 271 0 271 0 24 25 c24 23 25 31 25 136 l0 111 -80
82 -80 82 0 665 0 664 73 0 c116 1 143 19 349 222 210 208 233 244 226 347 -5
83 -44 148 -112 191 l-49 30 -180 3 -179 4 -153 -153z m489 -30 c20 -15 26
-29 26 -58 0 -31 -8 -44 -45 -81 l-45 -45 -103 103 -102 102 121 0 c108 0 124
-2 148 -21z m-279 -199 l100 -100 -70 -70 c-76 -77 -119 -97 -179 -86 -76 14
-126 92 -111 172 5 28 24 56 77 111 39 40 74 73 77 73 4 0 51 -45 106 -100z
m-755 50 c88 -14 181 -45 263 -87 l67 -35 0 -44 c0 -54 25 -129 56 -171 24
-31 24 -33 24 -282 l0 -251 -139 0 -140 0 -5 43 c-4 23 -13 114 -21 202 -9 87
-17 160 -18 161 -3 4 -148 -14 -152 -18 -3 -2 1 -57 7 -121 6 -64 9 -119 7
-120 -15 -13 -543 -167 -549 -160 -10 11 -270 665 -270 679 0 13 170 94 279
134 184 67 426 96 591 70z m-885 -608 l133 -332 -111 -35 c-423 -131 -533
-163 -538 -157 -10 11 -250 555 -246 558 10 10 613 302 621 300 4 -1 68 -151
141 -334z m-790 -307 c65 -146 115 -268 112 -271 -3 -3 -331 -106 -729 -228
-398 -123 -733 -226 -745 -230 -20 -6 -25 4 -73 150 -29 87 -53 164 -54 171
-1 9 240 132 674 343 371 181 680 329 686 329 6 1 64 -118 129 -264z m2085
-531 l0 -416 80 -82 c51 -52 80 -90 80 -104 0 -22 -2 -22 -165 -22 -145 0
-165 2 -165 16 0 16 -87 944 -93 997 l-4 27 134 0 133 0 0 -416z m-3672 -102
l64 -193 -98 -164 c-68 -114 -104 -165 -116 -165 -17 0 -18 22 -18 361 l0 360
52 -3 51 -3 65 -193z"/>
</g>
</svg>
