<?xml version="1.0" standalone="no"?>
<!DOCTYPE svg PUBLIC "-//W3C//DTD SVG 20010904//EN"
 "http://www.w3.org/TR/2001/REC-SVG-20010904/DTD/svg10.dtd">
<svg version="1.0" xmlns="http://www.w3.org/2000/svg"
 width="25pt" height="25pt" viewBox="0 0 480.000000 480.000000"
 preserveAspectRatio="xMidYMid meet">

<g transform="translate(0.000000,480.000000) scale(0.100000,-0.100000)"
fill="#FFA500" stroke="none">
<path d="M1898 4784 c-61 -22 -366 -248 -374 -278 -3 -13 -4 -153 -2 -313 l3
-289 36 -72 35 -72 -95 0 c-150 -1 -230 -27 -316 -102 -61 -53 -575 -796 -626
-903 -181 -385 -36 -839 336 -1050 63 -35 109 -54 205 -82 46 -14 130 -18 488
-22 l432 -6 -330 -587 -330 -587 0 -186 c0 -184 0 -186 25 -210 l24 -25 951 0
951 0 24 25 c24 23 25 31 25 133 0 71 -4 114 -12 125 -7 10 -125 82 -263 161
-137 80 -249 150 -247 156 2 7 144 267 317 579 359 646 362 653 352 831 -9
159 -63 278 -178 392 -75 74 -191 137 -288 157 -29 6 -317 25 -640 41 -322 16
-607 31 -634 32 l-47 3 84 127 c47 69 93 129 103 132 10 3 272 73 581 156
l564 150 447 0 448 0 174 130 c96 72 180 138 187 147 8 11 12 54 12 125 0 102
-1 110 -25 133 l-24 25 -1014 0 -1013 0 35 72 36 72 0 330 0 331 -25 50 c-32
64 -92 124 -155 154 -65 31 -171 38 -237 15z m190 -171 c51 -38 66 -69 70
-143 l4 -70 -137 0 -137 0 -82 -80 c-52 -51 -90 -80 -104 -80 -21 0 -22 4 -22
100 l0 99 120 91 c66 50 130 95 143 100 34 15 115 5 145 -17z m72 -509 c0 -78
-5 -154 -12 -178 -16 -55 -99 -138 -154 -154 -94 -28 -169 -8 -239 63 -57 56
-75 102 -75 189 l0 56 56 0 57 0 81 80 81 80 103 0 102 0 0 -136z m-2 -741
l-3 -236 -160 -43 c-88 -24 -170 -46 -183 -49 -15 -4 -68 -74 -175 -234 l-152
-228 -355 97 c-195 53 -360 98 -367 101 -16 5 495 744 538 778 62 48 79 50
482 51 l377 0 -2 -237z m1522 217 c0 -14 -41 -50 -133 -120 l-134 -100 -192 0
-191 0 -343 -91 c-188 -50 -348 -94 -354 -96 -10 -4 -13 42 -13 211 l0 216
680 0 c672 0 680 0 680 -20z m480 0 c0 -14 -41 -50 -134 -120 l-134 -101 -103
3 -103 3 71 53 c39 29 74 59 77 68 3 9 6 38 6 65 l0 49 160 0 c153 0 160 -1
160 -20z m-3056 -1070 c221 -60 448 -117 506 -126 58 -9 109 -20 113 -24 5 -4
-51 -141 -124 -304 l-131 -296 -122 0 c-151 0 -237 18 -346 71 -169 83 -307
261 -346 449 -26 122 -4 340 34 340 8 0 196 -49 416 -110z m1586 -85 c162 -8
313 -20 335 -26 235 -64 377 -317 306 -545 -14 -46 -131 -266 -343 -648 l-323
-579 -179 -49 c-176 -49 -180 -49 -215 -33 -84 38 -112 -13 317 572 218 298
398 554 412 584 108 252 -19 553 -276 649 -30 11 -150 36 -266 55 -117 20
-217 38 -223 40 -5 2 28 2 75 -1 47 -2 218 -11 380 -19z m-399 -155 c400 -67
424 -74 498 -155 65 -70 86 -124 86 -220 0 -61 -5 -91 -22 -128 -13 -27 -202
-293 -420 -592 l-398 -543 -208 -52 c-114 -29 -210 -50 -213 -47 -3 2 137 257
311 565 190 339 315 571 315 587 0 14 -11 37 -25 50 l-24 25 -271 0 c-148 0
-270 3 -270 8 0 4 55 132 122 284 95 214 127 278 141 278 10 0 180 -27 378
-60z m32 -1940 c166 -95 237 -140 237 -152 0 -17 -31 -18 -520 -18 l-520 0 0
89 0 89 258 65 c141 36 269 65 283 64 14 -1 132 -63 262 -137z m640 0 c166
-95 237 -140 237 -152 0 -17 -18 -18 -240 -18 l-240 0 0 51 c0 28 -4 58 -10
68 -5 10 -55 45 -111 77 -56 32 -98 59 -92 61 65 22 182 51 199 50 11 -1 127
-63 257 -137z"/>
</g>
</svg>
